<svg xmlns="http://www.w3.org/2000/svg" viewBox="0 0 64 64">
  <rect width="64" height="64" rx="14" fill="#172033"/>
  <path d="M28 20C22 13 13 13 10 20c-3 7 3 14 11 14h7V20Z" fill="#14b8a6"/>
  <path d="M36 20c6-7 15-7 18 0 3 7-3 14-11 14h-7V20Z" fill="#5eead4"/>
  <path d="M28 32c-7 1-11 5-9 11 2 5 8 5 11 0l1-2-3-9Z" fill="#2dd4bf"/>
  <path d="M36 32c7 1 11 5 9 11-2 5-8 5-11 0l-1-2 3-9Z" fill="#0f766e"/>
  <circle cx="32" cy="13" r="4" fill="#f8fafc"/>
  <rect x="27" y="17" width="10" height="27" rx="5" fill="#f8fafc"/>
  <circle cx="32" cy="50" r="7" fill="#f59e0b"/>
  <circle cx="32" cy="50" r="3" fill="#fff7d6"/>
</svg>
